# xmcd
# Copyright (C) 1995-1998 Ti Kan
#
# Track frame offsets:
#       150
#       20915
#       37518
#       58225
#       79118
#       102868
#       129058
#       149235
#       167503
#       184925
#       209743
#       230008
#
# Disc length: 3330 seconds
#
# Revision: 0
# Processed by: cddbd v1.5.2PL0 Copyright (c) Steve Scherf et al.
# Submitted via: CD-Import v1.0
#
DISCID=a90d000c
DTITLE=U2 - Achtung Baby
DYEAR=1992
DGENRE=
TTITLE0=Zoo Station
TTITLE1=Even Better Than The Real Thing
TTITLE2=One
TTITLE3=Until The End Of The World
TTITLE4=Who's Gonna Ride Your Wild Horse
TTITLE5=So Cruel
TTITLE6=The Fly
TTITLE7=Mysterious Ways
TTITLE8=Tryin' To Throw Your Arms Around The World
TTITLE9=Ultra Violet (Light My Way)
TTITLE10=Acrobat
TTITLE11=Love Is Blindness
EXTD=
EXTT0=
EXTT1=
EXTT2=
EXTT3=
EXTT4=
EXTT5=
EXTT6=
EXTT7=
EXTT8=
EXTT9=
EXTT10=
EXTT11=
PLAYORDER=
